<svg xmlns="http://www.w3.org/2000/svg" viewBox="0 0 640 222" width="640" height="222"><line x1="104" y1="10" x2="104" y2="194" class="f-quiet"/><text x="112" y="24" font-size="11" text-anchor="start" font-weight="600">1. expand</text><text x="112" y="40" font-size="10" text-anchor="start" class="f-soft">add column</text><line x1="209.6" y1="10" x2="209.6" y2="194" class="f-quiet"/><text x="217.6" y="24" font-size="11" text-anchor="start" font-weight="600">2. dual write</text><text x="217.6" y="40" font-size="10" text-anchor="start" class="f-soft">deploy A</text><line x1="315.2" y1="10" x2="315.2" y2="194" class="f-quiet"/><text x="323.2" y="24" font-size="11" text-anchor="start" font-weight="600">3. backfill</text><text x="323.2" y="40" font-size="10" text-anchor="start" class="f-soft">in batches</text><line x1="420.8" y1="10" x2="420.8" y2="194" class="f-quiet"/><text x="428.8" y="24" font-size="11" text-anchor="start" font-weight="600">4. reads</text><text x="428.8" y="40" font-size="10" text-anchor="start" class="f-soft">deploy B</text><line x1="526.4" y1="10" x2="526.4" y2="194" class="f-quiet"/><text x="534.4" y="24" font-size="11" text-anchor="start" font-weight="600">5. contract</text><text x="534.4" y="40" font-size="10" text-anchor="start" class="f-soft">drop column</text><line x1="632" y1="10" x2="632" y2="194" class="f-quiet"/><text x="92" y="76" font-size="10.5" text-anchor="end">name</text><rect x="104" y="66" width="459.4" height="14" class="f-fill"/><text x="92" y="112" font-size="10.5" text-anchor="end">full_name</text><rect x="141" y="102" width="258.7" height="14" class="f-tint"/><rect x="141" y="102" width="258.7" height="14" class="f-line f-dash"/><rect x="399.7" y="102" width="232.3" height="14" class="f-fill"/><text x="92" y="148" font-size="10.5" text-anchor="end">reads</text><rect x="104" y="138" width="353.8" height="14" class="f-quiet f-paper"/><text x="112" y="149" font-size="10" text-anchor="start">name</text><rect x="457.8" y="138" width="174.2" height="14" class="f-line f-tint"/><text x="465.8" y="149" font-size="10" text-anchor="start">full_name</text><text x="92" y="182" font-size="10.5" text-anchor="end">writes</text><text x="112" y="182" font-size="10" text-anchor="start">name</text><text x="217.6" y="182" font-size="10" text-anchor="start">name + full_name</text><text x="534.4" y="182" font-size="10" text-anchor="start">full_name</text><text x="104" y="214" font-size="10" text-anchor="start" class="f-soft">each phase is its own deploy, reversible right up to the contract</text></svg>
